<svg xmlns="http://www.w3.org/2000/svg" xmlns:xlink="http://www.w3.org/1999/xlink" version="1.1" width="1000" height="1000" viewBox="0 0 1000 1000" xml:space="preserve">
<desc>Created with Fabric.js 3.5.0</desc>
<defs>
</defs>
<rect x="0" y="0" width="100%" height="100%" fill="#ffffff"/>
<g transform="matrix(0.5208 0 0 0.3693 499.968 535.8191)" id="119174">
<g style="" vector-effect="non-scaling-stroke">
		<g transform="matrix(1 0 0 1 -910 -490)">
<rect style="stroke: none; stroke-width: 1; stroke-dasharray: none; stroke-linecap: butt; stroke-dashoffset: 0; stroke-linejoin: miter; stroke-miterlimit: 4; is-custom-font: none; font-file-url: none; fill: rgb(255,255,255); fill-rule: nonzero; opacity: 1;" x="-50" y="-50" rx="0" ry="0" width="100" height="100"/>
</g>
		<g transform="matrix(1.5598 0 0 1.5598 -635.5616 -0.4985)" id="763065">
<path style="stroke: none; stroke-width: 0; stroke-dasharray: none; stroke-linecap: butt; stroke-dashoffset: 0; stroke-linejoin: miter; stroke-miterlimit: 4; is-custom-font: none; font-file-url: none; fill: rgb(0,39,79); fill-rule: nonzero; opacity: 1;" vector-effect="non-scaling-stroke" transform=" translate(-256, -256)" d="M 416 464 H 96 a 48.05 48.05 0 0 1 -48 -48 V 96 A 48.05 48.05 0 0 1 96 48 H 416 a 48.05 48.05 0 0 1 48 48 V 416 A 48.05 48.05 0 0 1 416 464 Z" stroke-linecap="round"/>
</g>
		<g transform="matrix(1.5598 0 0 1.5598 -128 -0.5)" id="461777">
<path style="stroke: none; stroke-width: 0; stroke-dasharray: none; stroke-linecap: butt; stroke-dashoffset: 0; stroke-linejoin: miter; stroke-miterlimit: 4; is-custom-font: none; font-file-url: none; fill: rgb(0,39,79); fill-rule: nonzero; opacity: 1;" vector-effect="non-scaling-stroke" transform=" translate(-256, -256)" d="M 416 464 H 96 a 48.05 48.05 0 0 1 -48 -48 V 96 A 48.05 48.05 0 0 1 96 48 H 416 a 48.05 48.05 0 0 1 48 48 V 416 A 48.05 48.05 0 0 1 416 464 Z" stroke-linecap="round"/>
</g>
		<g transform="matrix(1.5598 0 0 1.5598 332 -0.5)" id="358680">
<path style="stroke: none; stroke-width: 0; stroke-dasharray: none; stroke-linecap: butt; stroke-dashoffset: 0; stroke-linejoin: miter; stroke-miterlimit: 4; is-custom-font: none; font-file-url: none; fill: rgb(0,39,79); fill-rule: nonzero; opacity: 1;" vector-effect="non-scaling-stroke" transform=" translate(-256, -256)" d="M 416 464 H 96 a 48.05 48.05 0 0 1 -48 -48 V 96 A 48.05 48.05 0 0 1 96 48 H 416 a 48.05 48.05 0 0 1 48 48 V 416 A 48.05 48.05 0 0 1 416 464 Z" stroke-linecap="round"/>
</g>
		<g transform="matrix(1.5598 0 0 1.5598 629.5 -0.5)" id="721320">
<path style="stroke: none; stroke-width: 0; stroke-dasharray: none; stroke-linecap: butt; stroke-dashoffset: 0; stroke-linejoin: miter; stroke-miterlimit: 4; is-custom-font: none; font-file-url: none; fill: rgb(0,39,79); fill-rule: nonzero; opacity: 1;" vector-effect="non-scaling-stroke" transform=" translate(-256, -256)" d="M 416 464 H 96 a 48.05 48.05 0 0 1 -48 -48 V 96 A 48.05 48.05 0 0 1 96 48 H 416 a 48.05 48.05 0 0 1 48 48 V 416 A 48.05 48.05 0 0 1 416 464 Z" stroke-linecap="round"/>
</g>
		<g transform="matrix(5 0 0 5 -593.3391 37.5)" id="107985">
<path style="stroke: rgb(0,39,79); stroke-width: 1; stroke-dasharray: none; stroke-linecap: butt; stroke-dashoffset: 0; stroke-linejoin: miter; stroke-miterlimit: 4; is-custom-font: none; font-file-url: none; fill: rgb(255,255,255); fill-rule: nonzero; opacity: 1;" vector-effect="non-scaling-stroke" transform=" translate(-23.965, -37.5)" d="M 42 15.5 H 5.93 C 2.66 15.5 0 18.16 0 21.429 V 42.57 c 0 3.27 2.66 5.93 5.93 5.93 H 12 v 10 c 0 0.413 0.254 0.784 0.64 0.933 C 12.757 59.478 12.879 59.5 13 59.5 c 0.276 0 0.547 -0.115 0.74 -0.327 L 23.442 48.5 H 42 c 3.27 0 5.93 -2.66 5.93 -5.929 V 21.43 C 47.93 18.16 45.27 15.5 42 15.5 z" stroke-linecap="round"/>
</g>
		<g transform="matrix(5 0 0 5 -528.1641 -37.325)" id="458132">
<path style="stroke: rgb(0,39,79); stroke-width: 1; stroke-dasharray: none; stroke-linecap: butt; stroke-dashoffset: 0; stroke-linejoin: miter; stroke-miterlimit: 4; is-custom-font: none; font-file-url: none; fill: rgb(255,255,255); fill-rule: nonzero; opacity: 1;" vector-effect="non-scaling-stroke" transform=" translate(-37, -22.535)" d="M 54.072 0.57 L 19.93 0.5 C 16.66 0.5 14 3.16 14 6.43 v 6.122 c 0 0.266 0.105 0.52 0.293 0.708 c 0.188 0.187 0.442 0.292 0.707 0.292 c 0 0 0.001 0 0.002 0 L 40.07 13.5 c 8.951 0 9.93 2.021 9.93 7.93 v 21.141 c 0 0.091 -0.01 0.181 -0.014 0.271 l 1.274 1.401 c 0.193 0.212 0.463 0.327 0.74 0.327 c 0.121 0 0.243 -0.022 0.361 -0.067 C 52.746 44.354 53 43.983 53 43.57 v -10 h 1.07 c 3.27 0 5.93 -2.66 5.93 -5.929 V 6.5 C 60 3.23 57.34 0.57 54.072 0.57 z" stroke-linecap="round"/>
</g>
		<g transform="matrix(1 0 0 1 191.2653 4.44)" id="703583">
<path style="stroke: none; stroke-width: 0; stroke-dasharray: none; stroke-linecap: butt; stroke-dashoffset: 0; stroke-linejoin: miter; stroke-miterlimit: 4; is-custom-font: none; font-file-url: none; fill: rgb(255,255,255); fill-rule: nonzero; opacity: 1;" transform=" translate(6.85, -4.44)" d="M -483.77 -55.2 L -445.43 42.41 L -459.47 42.41 Q -461.83 42.41 -463.35 41.23 Q -464.87 40.05 -465.55 38.29 L -465.55 38.29 L -472.84 18.38 L -513.27 18.38 L -520.56 38.29 Q -521.1 39.84 -522.69 41.13 Q -524.27 42.41 -526.57 42.41 L -526.57 42.41 L -540.67 42.41 L -502.33 -55.2 L -483.77 -55.2 Z M -496.73 -26.78 L -508.61 5.55 L -477.49 5.55 L -489.37 -26.91 Q -490.18 -29.07 -491.16 -32.01 Q -492.14 -34.95 -493.09 -38.39 L -493.09 -38.39 Q -494.03 -34.95 -494.94 -31.98 Q -495.85 -29.01 -496.73 -26.78 L -496.73 -26.78 Z M -391.43 -19.35 L -395.21 -13.35 Q -395.89 -12.27 -396.63 -11.83 Q -397.37 -11.39 -398.52 -11.39 L -398.52 -11.39 Q -399.73 -11.39 -401.12 -12.06 Q -402.5 -12.74 -404.32 -13.58 Q -406.15 -14.43 -408.48 -15.1 Q -410.8 -15.78 -413.98 -15.78 L -413.98 -15.78 Q -418.9 -15.78 -421.74 -13.68 Q -424.57 -11.59 -424.57 -8.22 L -424.57 -8.22 Q -424.57 -5.99 -423.12 -4.47 Q -421.67 -2.95 -419.28 -1.8 Q -416.88 -0.66 -413.84 0.26 Q -410.8 1.17 -407.63 2.25 Q -404.46 3.33 -401.42 4.71 Q -398.38 6.09 -395.99 8.22 Q -393.59 10.35 -392.14 13.32 Q -390.69 16.29 -390.69 20.47 L -390.69 20.47 Q -390.69 25.47 -392.51 29.69 Q -394.33 33.9 -397.84 36.98 Q -401.35 40.05 -406.52 41.77 Q -411.68 43.49 -418.36 43.49 L -418.36 43.49 Q -421.94 43.49 -425.35 42.85 Q -428.76 42.21 -431.9 41.06 Q -435.04 39.91 -437.7 38.36 Q -440.37 36.81 -442.39 34.98 L -442.39 34.98 L -438.55 28.64 Q -437.8 27.49 -436.79 26.88 Q -435.78 26.28 -434.23 26.28 L -434.23 26.28 Q -432.67 26.28 -431.29 27.15 Q -429.91 28.03 -428.08 29.04 Q -426.26 30.06 -423.8 30.93 Q -421.33 31.81 -417.55 31.81 L -417.55 31.81 Q -414.58 31.81 -412.46 31.1 Q -410.33 30.39 -408.95 29.25 Q -407.56 28.1 -406.92 26.58 Q -406.28 25.06 -406.28 23.44 L -406.28 23.44 Q -406.28 21.01 -407.73 19.46 Q -409.18 17.91 -411.58 16.76 Q -413.98 15.61 -417.05 14.7 Q -420.12 13.79 -423.33 12.71 Q -426.53 11.63 -429.6 10.18 Q -432.67 8.73 -435.07 6.5 Q -437.47 4.27 -438.92 1.03 Q -440.37 -2.21 -440.37 -6.8 L -440.37 -6.8 Q -440.37 -11.05 -438.68 -14.9 Q -436.99 -18.75 -433.72 -21.61 Q -430.45 -24.48 -425.55 -26.2 Q -420.66 -27.93 -414.25 -27.93 L -414.25 -27.93 Q -407.09 -27.93 -401.22 -25.56 Q -395.35 -23.2 -391.43 -19.35 L -391.43 -19.35 Z M -377.12 -57.9 L -360.45 -57.9 L -360.45 -0.45 L -357.34 -0.45 Q -355.66 -0.45 -354.71 -0.93 Q -353.77 -1.4 -352.69 -2.68 L -352.69 -2.68 L -335.47 -23.94 Q -334.33 -25.29 -333.04 -26.07 Q -331.76 -26.85 -329.67 -26.85 L -329.67 -26.85 L -314.41 -26.85 L -335.95 -1.13 Q -337.09 0.29 -338.31 1.47 Q -339.52 2.65 -340.94 3.53 L -340.94 3.53 Q -339.52 4.54 -338.44 5.89 Q -337.36 7.24 -336.28 8.79 L -336.28 8.79 L -313.2 42.41 L -328.25 42.41 Q -330.21 42.41 -331.56 41.73 Q -332.91 41.06 -333.99 39.44 L -333.99 39.44 L -351.61 13.18 Q -352.62 11.63 -353.63 11.16 Q -354.64 10.68 -356.67 10.68 L -356.67 10.68 L -360.45 10.68 L -360.45 42.41 L -377.12 42.41 L -377.12 -57.9 Z M -226.87 1.91 L -226.87 1.91 Q -225.72 4.07 -224.74 6.4 Q -223.76 8.73 -222.82 11.09 L -222.82 11.09 Q -221.87 8.66 -220.86 6.3 Q -219.85 3.93 -218.7 1.77 L -218.7 1.77 L -189.81 -52.29 Q -189.27 -53.31 -188.7 -53.91 Q -188.12 -54.52 -187.41 -54.79 Q -186.7 -55.06 -185.83 -55.13 Q -184.95 -55.2 -183.73 -55.2 L -183.73 -55.2 L -170.03 -55.2 L -170.03 42.41 L -186.03 42.41 L -186.03 -20.64 Q -186.03 -22.39 -185.93 -24.48 Q -185.83 -26.58 -185.62 -28.74 L -185.62 -28.74 L -215.12 26.61 Q -216.13 28.5 -217.75 29.55 Q -219.37 30.6 -221.53 30.6 L -221.53 30.6 L -224.03 30.6 Q -226.19 30.6 -227.81 29.55 Q -229.43 28.5 -230.44 26.61 L -230.44 26.61 L -260.35 -28.94 Q -260.08 -26.71 -259.98 -24.58 Q -259.87 -22.46 -259.87 -20.64 L -259.87 -20.64 L -259.87 42.41 L -275.87 42.41 L -275.87 -55.2 L -262.17 -55.2 Q -260.95 -55.2 -260.08 -55.13 Q -259.2 -55.06 -258.49 -54.79 Q -257.78 -54.52 -257.17 -53.91 Q -256.57 -53.31 -256.03 -52.29 L -256.03 -52.29 L -226.87 1.91 Z M -122.65 -27.93 L -122.65 -27.93 Q -116.1 -27.93 -110.6 -25.83 Q -105.1 -23.74 -101.11 -19.72 Q -97.13 -15.71 -94.9 -9.87 Q -92.68 -4.03 -92.68 3.46 L -92.68 3.46 Q -92.68 5.35 -92.85 6.6 Q -93.01 7.85 -93.45 8.56 Q -93.89 9.27 -94.63 9.57 Q -95.38 9.87 -96.52 9.87 L -96.52 9.87 L -139.32 9.87 Q -138.58 20.54 -133.58 25.53 Q -128.59 30.53 -120.35 30.53 L -120.35 30.53 Q -116.3 30.53 -113.37 29.58 Q -110.43 28.64 -108.24 27.49 Q -106.04 26.34 -104.39 25.4 Q -102.73 24.45 -101.18 24.45 L -101.18 24.45 Q -100.17 24.45 -99.43 24.86 Q -98.68 25.26 -98.14 26.01 L -98.14 26.01 L -93.28 32.08 Q -96.05 35.32 -99.49 37.52 Q -102.94 39.71 -106.68 41.03 Q -110.43 42.34 -114.31 42.88 Q -118.19 43.42 -121.84 43.42 L -121.84 43.42 Q -129.06 43.42 -135.27 41.03 Q -141.48 38.63 -146.07 33.94 Q -150.66 29.25 -153.29 22.33 Q -155.92 15.41 -155.92 6.3 L -155.92 6.3 Q -155.92 -0.79 -153.63 -7.03 Q -151.33 -13.28 -147.05 -17.9 Q -142.76 -22.53 -136.59 -25.23 Q -130.41 -27.93 -122.65 -27.93 Z M -122.31 -15.98 L -122.31 -15.98 Q -129.6 -15.98 -133.72 -11.86 Q -137.83 -7.74 -138.98 -0.18 L -138.98 -0.18 L -107.66 -0.18 Q -107.66 -3.42 -108.54 -6.29 Q -109.42 -9.16 -111.24 -11.32 Q -113.06 -13.48 -115.83 -14.73 Q -118.6 -15.98 -122.31 -15.98 Z M -4.66 -55.2 L 33.68 42.41 L 19.64 42.41 Q 17.28 42.41 15.76 41.23 Q 14.24 40.05 13.57 38.29 L 13.57 38.29 L 6.28 18.38 L -34.15 18.38 L -41.44 38.29 Q -41.98 39.84 -43.57 41.13 Q -45.16 42.41 -47.45 42.41 L -47.45 42.41 L -61.56 42.41 L -23.22 -55.2 L -4.66 -55.2 Z M -17.62 -26.78 L -29.5 5.55 L 1.62 5.55 L -10.26 -26.91 Q -11.07 -29.07 -12.05 -32.01 Q -13.03 -34.95 -13.97 -38.39 L -13.97 -38.39 Q -14.92 -34.95 -15.83 -31.98 Q -16.74 -29.01 -17.62 -26.78 L -17.62 -26.78 Z M 59.47 42.41 L 42.8 42.41 L 42.8 -26.85 L 52.99 -26.85 Q 56.23 -26.85 57.24 -23.81 L 57.24 -23.81 L 58.39 -18.34 Q 60.48 -20.5 62.81 -22.26 Q 65.14 -24.01 67.74 -25.29 Q 70.34 -26.58 73.31 -27.25 Q 76.28 -27.93 79.79 -27.93 L 79.79 -27.93 Q 85.46 -27.93 89.84 -26 Q 94.23 -24.08 97.17 -20.6 Q 100.1 -17.13 101.62 -12.3 Q 103.14 -7.47 103.14 -1.67 L 103.14 -1.67 L 103.14 42.41 L 86.47 42.41 L 86.47 -1.67 Q 86.47 -8.01 83.53 -11.49 Q 80.6 -14.97 74.72 -14.97 L 74.72 -14.97 Q 70.4 -14.97 66.62 -13.01 Q 62.84 -11.05 59.47 -7.68 L 59.47 -7.68 L 59.47 42.41 Z M 179.42 -26.85 L 141.68 61.44 Q 140.94 63.2 139.76 64.11 Q 138.58 65.02 136.15 65.02 L 136.15 65.02 L 123.73 65.02 L 136.69 37.28 L 108.68 -26.85 L 123.26 -26.85 Q 125.28 -26.85 126.36 -25.9 Q 127.44 -24.96 127.98 -23.74 L 127.98 -23.74 L 142.76 12.17 Q 143.51 13.92 144.05 15.81 Q 144.59 17.7 144.99 19.59 L 144.99 19.59 Q 145.53 17.64 146.17 15.81 Q 146.81 13.99 147.56 12.1 L 147.56 12.1 L 161.46 -23.74 Q 162 -25.09 163.25 -25.97 Q 164.5 -26.85 166.05 -26.85 L 166.05 -26.85 L 179.42 -26.85 Z M 211.88 43.49 L 211.88 43.49 Q 202.91 43.49 198.05 38.39 Q 193.19 33.3 193.19 24.32 L 193.19 24.32 L 193.19 -14.36 L 186.17 -14.36 Q 184.82 -14.36 183.84 -15.24 Q 182.86 -16.11 182.86 -17.87 L 182.86 -17.87 L 182.86 -24.48 L 194 -26.31 L 197.51 -45.21 Q 197.78 -46.56 198.75 -47.3 Q 199.73 -48.04 201.22 -48.04 L 201.22 -48.04 L 209.86 -48.04 L 209.86 -26.24 L 228.08 -26.24 L 228.08 -14.36 L 209.86 -14.36 L 209.86 23.17 Q 209.86 26.41 211.48 28.23 Q 213.1 30.06 215.8 30.06 L 215.8 30.06 Q 217.35 30.06 218.4 29.69 Q 219.44 29.31 220.22 28.91 Q 221 28.5 221.6 28.13 Q 222.21 27.76 222.82 27.76 L 222.82 27.76 Q 223.56 27.76 224.03 28.13 Q 224.51 28.5 225.05 29.25 L 225.05 29.25 L 230.04 37.35 Q 226.4 40.38 221.67 41.94 Q 216.95 43.49 211.88 43.49 Z M 258.05 42.41 L 241.38 42.41 L 241.38 -57.9 L 258.05 -57.9 L 258.05 -19.35 Q 262.1 -23.2 266.96 -25.56 Q 271.82 -27.93 278.37 -27.93 L 278.37 -27.93 Q 284.04 -27.93 288.43 -26 Q 292.82 -24.08 295.75 -20.6 Q 298.69 -17.13 300.21 -12.3 Q 301.73 -7.47 301.73 -1.67 L 301.73 -1.67 L 301.73 42.41 L 285.05 42.41 L 285.05 -1.67 Q 285.05 -8.01 282.12 -11.49 Q 279.18 -14.97 273.31 -14.97 L 273.31 -14.97 Q 268.99 -14.97 265.21 -13.01 Q 261.43 -11.05 258.05 -7.68 L 258.05 -7.68 L 258.05 42.41 Z M 319.21 -26.85 L 335.88 -26.85 L 335.88 42.41 L 319.21 42.41 L 319.21 -26.85 Z M 338.38 -47.03 L 338.38 -47.03 Q 338.38 -44.87 337.5 -42.98 Q 336.62 -41.09 335.17 -39.67 Q 333.72 -38.25 331.76 -37.41 Q 329.81 -36.57 327.58 -36.57 L 327.58 -36.57 Q 325.42 -36.57 323.49 -37.41 Q 321.57 -38.25 320.15 -39.67 Q 318.74 -41.09 317.89 -42.98 Q 317.05 -44.87 317.05 -47.03 L 317.05 -47.03 Q 317.05 -49.26 317.89 -51.21 Q 318.74 -53.17 320.15 -54.59 Q 321.57 -56.01 323.49 -56.85 Q 325.42 -57.69 327.58 -57.69 L 327.58 -57.69 Q 329.81 -57.69 331.76 -56.85 Q 333.72 -56.01 335.17 -54.59 Q 336.62 -53.17 337.5 -51.21 Q 338.38 -49.26 338.38 -47.03 Z M 371.39 42.41 L 354.71 42.41 L 354.71 -26.85 L 364.91 -26.85 Q 368.15 -26.85 369.16 -23.81 L 369.16 -23.81 L 370.31 -18.34 Q 372.4 -20.5 374.73 -22.26 Q 377.06 -24.01 379.65 -25.29 Q 382.25 -26.58 385.22 -27.25 Q 388.19 -27.93 391.7 -27.93 L 391.7 -27.93 Q 397.37 -27.93 401.76 -26 Q 406.15 -24.08 409.08 -20.6 Q 412.02 -17.13 413.54 -12.3 Q 415.06 -7.47 415.06 -1.67 L 415.06 -1.67 L 415.06 42.41 L 398.39 42.41 L 398.39 -1.67 Q 398.39 -8.01 395.45 -11.49 Q 392.51 -14.97 386.64 -14.97 L 386.64 -14.97 Q 382.32 -14.97 378.54 -13.01 Q 374.76 -11.05 371.39 -7.68 L 371.39 -7.68 L 371.39 42.41 Z M 455.42 -28.06 L 455.42 -28.06 Q 459.88 -28.06 463.79 -27.15 Q 467.71 -26.24 470.95 -24.48 L 470.95 -24.48 L 490.86 -24.48 L 490.86 -18.27 Q 490.86 -16.72 490.05 -15.84 Q 489.24 -14.97 487.28 -14.63 L 487.28 -14.63 L 481.07 -13.48 Q 481.75 -11.73 482.12 -9.77 Q 482.49 -7.81 482.49 -5.65 L 482.49 -5.65 Q 482.49 -0.52 480.43 3.63 Q 478.37 7.78 474.76 10.68 Q 471.15 13.59 466.19 15.17 Q 461.23 16.76 455.42 16.76 L 455.42 16.76 Q 451.51 16.76 447.8 16.02 L 447.8 16.02 Q 444.56 17.97 444.56 20.4 L 444.56 20.4 Q 444.56 22.5 446.48 23.48 Q 448.4 24.45 451.54 24.86 Q 454.68 25.26 458.66 25.37 Q 462.65 25.47 466.83 25.8 Q 471.02 26.14 475 26.99 Q 478.98 27.83 482.12 29.65 Q 485.26 31.47 487.18 34.61 Q 489.11 37.75 489.11 42.68 L 489.11 42.68 Q 489.11 47.27 486.84 51.59 Q 484.58 55.91 480.3 59.28 Q 476.01 62.66 469.8 64.72 Q 463.59 66.78 455.63 66.78 L 455.63 66.78 Q 447.73 66.78 441.92 65.26 Q 436.12 63.74 432.3 61.21 Q 428.49 58.68 426.6 55.37 Q 424.71 52.06 424.71 48.48 L 424.71 48.48 Q 424.71 43.62 427.68 40.32 Q 430.65 37.01 435.92 35.05 L 435.92 35.05 Q 433.35 33.63 431.8 31.27 Q 430.25 28.91 430.25 25.13 L 430.25 25.13 Q 430.25 23.58 430.79 21.92 Q 431.33 20.27 432.44 18.65 Q 433.55 17.03 435.24 15.58 Q 436.93 14.13 439.22 12.98 L 439.22 12.98 Q 433.96 10.14 430.95 5.42 Q 427.95 0.69 427.95 -5.65 L 427.95 -5.65 Q 427.95 -10.78 430.01 -14.93 Q 432.07 -19.08 435.75 -22.02 Q 439.43 -24.96 444.45 -26.51 Q 449.48 -28.06 455.42 -28.06 Z M 473.72 45.51 L 473.72 45.51 Q 473.72 43.49 472.5 42.21 Q 471.29 40.92 469.19 40.22 Q 467.1 39.51 464.3 39.17 Q 461.5 38.83 458.36 38.66 Q 455.22 38.49 451.88 38.33 Q 448.54 38.16 445.43 37.75 L 445.43 37.75 Q 442.6 39.3 440.88 41.43 Q 439.16 43.56 439.16 46.32 L 439.16 46.32 Q 439.16 48.15 440.07 49.73 Q 440.98 51.32 442.97 52.47 Q 444.96 53.61 448.13 54.26 Q 451.31 54.9 455.9 54.9 L 455.9 54.9 Q 460.55 54.9 463.93 54.19 Q 467.3 53.48 469.5 52.23 Q 471.69 50.98 472.7 49.26 Q 473.72 47.54 473.72 45.51 Z M 455.42 6.09 L 455.42 6.09 Q 458.53 6.09 460.82 5.25 Q 463.12 4.41 464.64 2.92 Q 466.16 1.44 466.93 -0.66 Q 467.71 -2.75 467.71 -5.25 L 467.71 -5.25 Q 467.71 -10.38 464.64 -13.38 Q 461.57 -16.38 455.42 -16.38 L 455.42 -16.38 Q 449.28 -16.38 446.21 -13.38 Q 443.14 -10.38 443.14 -5.25 L 443.14 -5.25 Q 443.14 -2.82 443.91 -0.72 Q 444.69 1.37 446.21 2.89 Q 447.73 4.41 450.06 5.25 Q 452.39 6.09 455.42 6.09 Z M 509.09 -55.2 L 524.81 -55.2 L 524.81 -16.59 Q 524.81 -10.44 524.21 -4.54 Q 523.6 1.37 522.59 7.98 L 522.59 7.98 L 511.31 7.98 Q 510.3 1.37 509.69 -4.54 Q 509.09 -10.44 509.09 -16.59 L 509.09 -16.59 L 509.09 -55.2 Z M 506.52 33.23 L 506.52 33.23 Q 506.52 31.14 507.3 29.25 Q 508.07 27.36 509.46 26.01 Q 510.84 24.66 512.73 23.85 Q 514.62 23.04 516.78 23.04 L 516.78 23.04 Q 518.87 23.04 520.76 23.85 Q 522.65 24.66 524 26.01 Q 525.35 27.36 526.16 29.25 Q 526.97 31.14 526.97 33.23 L 526.97 33.23 Q 526.97 35.39 526.16 37.25 Q 525.35 39.1 524 40.45 Q 522.65 41.8 520.76 42.58 Q 518.87 43.35 516.78 43.35 L 516.78 43.35 Q 514.62 43.35 512.73 42.58 Q 510.84 41.8 509.46 40.45 Q 508.07 39.1 507.3 37.25 Q 506.52 35.39 506.52 33.23 Z" stroke-linecap="round"/>
</g>
</g>
</g>
<g transform="matrix(6.6433 0 0 2.0897 600.2219 535.8457)" id="927066">
<path style="stroke: none; stroke-width: 1; stroke-dasharray: none; stroke-linecap: butt; stroke-dashoffset: 0; stroke-linejoin: miter; stroke-miterlimit: 4; is-custom-font: none; font-file-url: none; fill: rgb(0,39,79); fill-rule: nonzero; opacity: 1;" vector-effect="non-scaling-stroke" transform=" translate(-43.5, -25)" d="M 87 0 H 0 V 50 H 87 V 0 Z" stroke-linecap="round"/>
</g>
<g transform="matrix(1 0 0 1 601.3952 534.7156)" style="" id="671356">
		
<path xml:space="preserve" font-family="Lato" font-size="69" font-style="normal" font-weight="bold" style="stroke: none; stroke-width: 1; stroke-dasharray: none; stroke-linecap: butt; stroke-dashoffset: 0; stroke-linejoin: miter; stroke-miterlimit: 4; is-custom-font: none; font-file-url: none; fill: rgb(255,255,255); fill-rule: nonzero; opacity: 1; white-space: pre;" d="M-259.58-28.21L-239.98 21.68L-247.16 21.68Q-248.36 21.68-249.14 21.07Q-249.92 20.47-250.26 19.57L-250.26 19.57L-253.99 9.39L-274.65 9.39L-278.38 19.57Q-278.65 20.36-279.46 21.02Q-280.28 21.68-281.45 21.68L-281.45 21.68L-288.66 21.68L-269.06-28.21L-259.58-28.21ZM-266.20-13.69L-272.27 2.84L-256.37 2.84L-262.44-13.76Q-262.85-14.86-263.35-16.36Q-263.85-17.86-264.34-19.62L-264.34-19.62Q-264.82-17.86-265.28-16.34Q-265.75-14.83-266.20-13.69L-266.20-13.69ZM-212.38-9.89L-214.31-6.82Q-214.66-6.27-215.04-6.05Q-215.42-5.82-216.00-5.82L-216.00-5.82Q-216.62-5.82-217.33-6.17Q-218.04-6.51-218.97-6.94Q-219.90-7.37-221.09-7.72Q-222.28-8.06-223.90-8.06L-223.90-8.06Q-226.42-8.06-227.87-6.99Q-229.32-5.92-229.32-4.20L-229.32-4.20Q-229.32-3.06-228.58-2.28Q-227.84-1.51-226.61-0.92Q-225.39-0.34-223.83 0.13Q-222.28 0.60-220.66 1.15Q-219.04 1.70-217.49 2.41Q-215.93 3.11-214.71 4.20Q-213.48 5.29-212.74 6.81Q-212.00 8.32-212.00 10.46L-212.00 10.46Q-212.00 13.02-212.93 15.17Q-213.86 17.33-215.66 18.90Q-217.45 20.47-220.09 21.35Q-222.73 22.23-226.14 22.23L-226.14 22.23Q-227.97 22.23-229.72 21.90Q-231.46 21.57-233.06 20.99Q-234.67 20.40-236.03 19.61Q-237.39 18.81-238.43 17.88L-238.43 17.88L-236.46 14.64Q-236.08 14.05-235.56 13.74Q-235.05 13.43-234.25 13.43L-234.25 13.43Q-233.46 13.43-232.75 13.88Q-232.04 14.33-231.11 14.84Q-230.18 15.36-228.92 15.81Q-227.66 16.26-225.73 16.26L-225.73 16.26Q-224.21 16.26-223.13 15.90Q-222.04 15.53-221.33 14.95Q-220.62 14.36-220.30 13.59Q-219.97 12.81-219.97 11.98L-219.97 11.98Q-219.97 10.74-220.71 9.95Q-221.45 9.15-222.68 8.57Q-223.90 7.98-225.47 7.51Q-227.04 7.05-228.68 6.50Q-230.32 5.94-231.89 5.20Q-233.46 4.46-234.68 3.32Q-235.91 2.18-236.65 0.53Q-237.39-1.13-237.39-3.47L-237.39-3.47Q-237.39-5.65-236.53-7.61Q-235.67-9.58-233.99-11.05Q-232.32-12.51-229.82-13.39Q-227.32-14.27-224.04-14.27L-224.04-14.27Q-220.38-14.27-217.38-13.07Q-214.38-11.86-212.38-9.89L-212.38-9.89ZM-205.07-29.59L-196.54-29.59L-196.54-0.23L-194.96-0.23Q-194.09-0.23-193.61-0.47Q-193.13-0.71-192.58-1.37L-192.58-1.37L-183.78-12.24Q-183.19-12.93-182.54-13.32Q-181.88-13.72-180.81-13.72L-180.81-13.72L-173.01-13.72L-184.02-0.58Q-184.61 0.15-185.23 0.75Q-185.85 1.36-186.57 1.80L-186.57 1.80Q-185.85 2.32-185.30 3.01Q-184.74 3.70-184.19 4.49L-184.19 4.49L-172.39 21.68L-180.09 21.68Q-181.09 21.68-181.78 21.33Q-182.47 20.99-183.02 20.16L-183.02 20.16L-192.02 6.74Q-192.54 5.94-193.06 5.70Q-193.58 5.46-194.61 5.46L-194.61 5.46L-196.54 5.46L-196.54 21.68L-205.07 21.68L-205.07-29.59ZM-128.27 0.98L-128.27 0.98Q-127.68 2.08-127.18 3.27Q-126.68 4.46-126.20 5.67L-126.20 5.67Q-125.72 4.43-125.20 3.22Q-124.68 2.01-124.09 0.91L-124.09 0.91L-109.33-26.73Q-109.05-27.25-108.76-27.56Q-108.47-27.87-108.10-28.00Q-107.74-28.14-107.29-28.18Q-106.84-28.21-106.22-28.21L-106.22-28.21L-99.22-28.21L-99.22 21.68L-107.40 21.68L-107.40-10.55Q-107.40-11.44-107.34-12.51Q-107.29-13.58-107.19-14.69L-107.19-14.69L-122.27 13.60Q-122.78 14.57-123.61 15.10Q-124.44 15.64-125.54 15.64L-125.54 15.64L-126.82 15.64Q-127.92 15.64-128.75 15.10Q-129.58 14.57-130.10 13.60L-130.10 13.60L-145.38-14.79Q-145.24-13.65-145.19-12.57Q-145.14-11.48-145.14-10.55L-145.14-10.55L-145.14 21.68L-153.32 21.68L-153.32-28.21L-146.31-28.21Q-145.69-28.21-145.24-28.18Q-144.79-28.14-144.43-28.00Q-144.07-27.87-143.76-27.56Q-143.45-27.25-143.17-26.73L-143.17-26.73L-128.27 0.98ZM-75.00-14.27L-75.00-14.27Q-71.65-14.27-68.84-13.20Q-66.03-12.13-63.99-10.08Q-61.96-8.03-60.82-5.04Q-59.68-2.06-59.68 1.77L-59.68 1.77Q-59.68 2.74-59.77 3.37Q-59.85 4.01-60.08 4.37Q-60.30 4.74-60.68 4.89Q-61.06 5.05-61.65 5.05L-61.65 5.05L-83.52 5.05Q-83.14 10.50-80.59 13.05Q-78.04 15.60-73.83 15.60L-73.83 15.60Q-71.76 15.60-70.26 15.12Q-68.76 14.64-67.63 14.05Q-66.51 13.46-65.67 12.98Q-64.82 12.50-64.03 12.50L-64.03 12.50Q-63.51 12.50-63.13 12.71Q-62.75 12.91-62.48 13.29L-62.48 13.29L-59.99 16.40Q-61.41 18.05-63.17 19.17Q-64.93 20.30-66.84 20.97Q-68.76 21.64-70.74 21.92Q-72.72 22.19-74.59 22.19L-74.59 22.19Q-78.28 22.19-81.45 20.97Q-84.63 19.74-86.97 17.35Q-89.32 14.95-90.66 11.41Q-92.01 7.88-92.01 3.22L-92.01 3.22Q-92.01-0.40-90.84-3.60Q-89.66-6.79-87.47-9.15Q-85.28-11.51-82.12-12.89Q-78.97-14.27-75.00-14.27ZM-74.83-8.17L-74.83-8.17Q-78.55-8.17-80.66-6.06Q-82.76-3.96-83.35-0.09L-83.35-0.09L-67.34-0.09Q-67.34-1.75-67.79-3.22Q-68.24-4.68-69.17-5.79Q-70.10-6.89-71.52-7.53Q-72.93-8.17-74.83-8.17ZM-14.69-28.21L4.90 21.68L-2.27 21.68Q-3.48 21.68-4.26 21.07Q-5.03 20.47-5.38 19.57L-5.38 19.57L-9.11 9.39L-29.77 9.39L-33.50 19.57Q-33.77 20.36-34.58 21.02Q-35.39 21.68-36.57 21.68L-36.57 21.68L-43.78 21.68L-24.18-28.21L-14.69-28.21ZM-21.32-13.69L-27.39 2.84L-11.49 2.84L-17.56-13.76Q-17.97-14.86-18.47-16.36Q-18.97-17.86-19.46-19.62L-19.46-19.62Q-19.94-17.86-20.40-16.34Q-20.87-14.83-21.32-13.69L-21.32-13.69ZM18.08 21.68L9.56 21.68L9.56-13.72L14.77-13.72Q16.42-13.72 16.94-12.17L16.94-12.17L17.53-9.37Q18.60-10.48 19.79-11.38Q20.98-12.27 22.31-12.93Q23.64-13.58 25.15-13.93Q26.67-14.27 28.47-14.27L28.47-14.27Q31.36-14.27 33.61-13.29Q35.85-12.31 37.35-10.53Q38.85-8.75 39.63-6.29Q40.40-3.82 40.40-0.85L40.40-0.85L40.40 21.68L31.88 21.68L31.88-0.85Q31.88-4.10 30.38-5.87Q28.88-7.65 25.88-7.65L25.88-7.65Q23.67-7.65 21.74-6.65Q19.81-5.65 18.08-3.92L18.08-3.92L18.08 21.68ZM79.39-13.72L60.10 31.40Q59.72 32.30 59.12 32.77Q58.51 33.23 57.27 33.23L57.27 33.23L50.92 33.23L57.55 19.05L43.23-13.72L50.68-13.72Q51.72-13.72 52.27-13.24Q52.82-12.76 53.10-12.13L53.10-12.13L60.65 6.22Q61.03 7.12 61.31 8.08Q61.59 9.05 61.79 10.01L61.79 10.01Q62.07 9.01 62.40 8.08Q62.72 7.15 63.10 6.19L63.10 6.19L70.21-12.13Q70.49-12.82 71.12-13.27Q71.76-13.72 72.56-13.72L72.56-13.72L79.39-13.72ZM95.98 22.23L95.98 22.23Q91.39 22.23 88.91 19.62Q86.43 17.02 86.43 12.43L86.43 12.43L86.43-7.34L82.84-7.34Q82.15-7.34 81.65-7.79Q81.15-8.24 81.15-9.13L81.15-9.13L81.15-12.51L86.84-13.45L88.63-23.11Q88.77-23.80 89.27-24.17Q89.77-24.55 90.53-24.55L90.53-24.55L94.95-24.55L94.95-13.41L104.26-13.41L104.26-7.34L94.95-7.34L94.95 11.84Q94.95 13.50 95.77 14.43Q96.60 15.36 97.98 15.36L97.98 15.36Q98.78 15.36 99.31 15.17Q99.85 14.98 100.24 14.78Q100.64 14.57 100.95 14.38Q101.26 14.19 101.57 14.19L101.57 14.19Q101.95 14.19 102.19 14.38Q102.43 14.57 102.71 14.95L102.71 14.95L105.26 19.09Q103.40 20.64 100.98 21.43Q98.57 22.23 95.98 22.23ZM119.58 21.68L111.06 21.68L111.06-29.59L119.58-29.59L119.58-9.89Q121.65-11.86 124.13-13.07Q126.62-14.27 129.96-14.27L129.96-14.27Q132.86-14.27 135.10-13.29Q137.35-12.31 138.85-10.53Q140.35-8.75 141.13-6.29Q141.90-3.82 141.90-0.85L141.90-0.85L141.90 21.68L133.38 21.68L133.38-0.85Q133.38-4.10 131.88-5.87Q130.38-7.65 127.38-7.65L127.38-7.65Q125.17-7.65 123.24-6.65Q121.30-5.65 119.58-3.92L119.58-3.92L119.58 21.68ZM150.84-13.72L159.36-13.72L159.36 21.68L150.84 21.68L150.84-13.72ZM160.63-24.04L160.63-24.04Q160.63-22.93 160.19-21.97Q159.74-21.00 159.00-20.28Q158.25-19.55 157.25-19.12Q156.25-18.69 155.11-18.69L155.11-18.69Q154.01-18.69 153.03-19.12Q152.04-19.55 151.32-20.28Q150.60-21.00 150.16-21.97Q149.73-22.93 149.73-24.04L149.73-24.04Q149.73-25.18 150.16-26.18Q150.60-27.18 151.32-27.90Q152.04-28.63 153.03-29.06Q154.01-29.49 155.11-29.49L155.11-29.49Q156.25-29.49 157.25-29.06Q158.25-28.63 159.00-27.90Q159.74-27.18 160.19-26.18Q160.63-25.18 160.63-24.04ZM177.51 21.68L168.98 21.68L168.98-13.72L174.19-13.72Q175.85-13.72 176.37-12.17L176.37-12.17L176.95-9.37Q178.02-10.48 179.21-11.38Q180.40-12.27 181.73-12.93Q183.06-13.58 184.58-13.93Q186.10-14.27 187.89-14.27L187.89-14.27Q190.79-14.27 193.03-13.29Q195.27-12.31 196.77-10.53Q198.27-8.75 199.05-6.29Q199.83-3.82 199.83-0.85L199.83-0.85L199.83 21.68L191.31 21.68L191.31-0.85Q191.31-4.10 189.80-5.87Q188.30-7.65 185.30-7.65L185.30-7.65Q183.09-7.65 181.16-6.65Q179.23-5.65 177.51-3.92L177.51-3.92L177.51 21.68ZM220.46-14.34L220.46-14.34Q222.73-14.34 224.74-13.88Q226.74-13.41 228.39-12.51L228.39-12.51L238.57-12.51L238.57-9.34Q238.57-8.55 238.16-8.10Q237.74-7.65 236.74-7.48L236.74-7.48L233.57-6.89Q233.91-5.99 234.10-4.99Q234.29-3.99 234.29-2.89L234.29-2.89Q234.29-0.27 233.24 1.86Q232.19 3.98 230.34 5.46Q228.50 6.94 225.96 7.75Q223.42 8.57 220.46 8.57L220.46 8.57Q218.46 8.57 216.56 8.19L216.56 8.19Q214.90 9.19 214.90 10.43L214.90 10.43Q214.90 11.50 215.89 12.00Q216.87 12.50 218.47 12.71Q220.08 12.91 222.11 12.96Q224.15 13.02 226.29 13.19Q228.43 13.36 230.46 13.79Q232.50 14.22 234.10 15.16Q235.71 16.09 236.69 17.69Q237.67 19.30 237.67 21.81L237.67 21.81Q237.67 24.16 236.52 26.37Q235.36 28.58 233.17 30.30Q230.98 32.03 227.81 33.08Q224.63 34.13 220.56 34.13L220.56 34.13Q216.52 34.13 213.56 33.35Q210.59 32.58 208.64 31.28Q206.69 29.99 205.73 28.30Q204.76 26.61 204.76 24.78L204.76 24.78Q204.76 22.30 206.28 20.61Q207.80 18.92 210.49 17.92L210.49 17.92Q209.18 17.19 208.38 15.98Q207.59 14.78 207.59 12.84L207.59 12.84Q207.59 12.05 207.87 11.20Q208.14 10.36 208.71 9.53Q209.28 8.70 210.14 7.96Q211.00 7.22 212.18 6.63L212.18 6.63Q209.49 5.18 207.95 2.77Q206.42 0.35 206.42-2.89L206.42-2.89Q206.42-5.51 207.47-7.63Q208.52-9.75 210.40-11.25Q212.28-12.76 214.85-13.55Q217.42-14.34 220.46-14.34ZM229.81 23.26L229.81 23.26Q229.81 22.23 229.19 21.57Q228.57 20.92 227.50 20.55Q226.43 20.19 224.99 20.02Q223.56 19.85 221.96 19.76Q220.35 19.67 218.65 19.59Q216.94 19.50 215.35 19.30L215.35 19.30Q213.90 20.09 213.02 21.18Q212.14 22.26 212.14 23.68L212.14 23.68Q212.14 24.61 212.61 25.42Q213.07 26.23 214.09 26.82Q215.11 27.40 216.73 27.73Q218.35 28.06 220.70 28.06L220.70 28.06Q223.08 28.06 224.80 27.70Q226.53 27.33 227.65 26.70Q228.77 26.06 229.29 25.18Q229.81 24.30 229.81 23.26ZM220.46 3.11L220.46 3.11Q222.04 3.11 223.22 2.68Q224.39 2.25 225.17 1.49Q225.94 0.73 226.34-0.34Q226.74-1.40 226.74-2.68L226.74-2.68Q226.74-5.30 225.17-6.84Q223.60-8.37 220.46-8.37L220.46-8.37Q217.32-8.37 215.75-6.84Q214.18-5.30 214.18-2.68L214.18-2.68Q214.18-1.44 214.58-0.37Q214.97 0.70 215.75 1.48Q216.52 2.25 217.72 2.68Q218.91 3.11 220.46 3.11ZM247.89-28.21L255.92-28.21L255.92-8.48Q255.92-5.34 255.61-2.32Q255.30 0.70 254.79 4.08L254.79 4.08L249.02 4.08Q248.51 0.70 248.20-2.32Q247.89-5.34 247.89-8.48L247.89-8.48L247.89-28.21ZM246.57 16.98L246.57 16.98Q246.57 15.91 246.97 14.95Q247.37 13.98 248.08 13.29Q248.78 12.60 249.75 12.19Q250.71 11.77 251.82 11.77L251.82 11.77Q252.89 11.77 253.85 12.19Q254.82 12.60 255.51 13.29Q256.20 13.98 256.61 14.95Q257.03 15.91 257.03 16.98L257.03 16.98Q257.03 18.09 256.61 19.04Q256.20 19.99 255.51 20.68Q254.82 21.37 253.85 21.76Q252.89 22.16 251.82 22.16L251.82 22.16Q250.71 22.16 249.75 21.76Q248.78 21.37 248.08 20.68Q247.37 19.99 246.97 19.04Q246.57 18.09 246.57 16.98Z"/></g>
</svg>